<svg width="1393" height="871" xmlns="http://www.w3.org/2000/svg" xmlns:xlink="http://www.w3.org/1999/xlink" overflow="hidden"><defs><clipPath id="clip0"><rect x="0" y="0" width="1393" height="871"/></clipPath></defs><g clip-path="url(#clip0)"><rect x="0" y="0" width="1393" height="870.875" fill="#FFFFFF"/><path d="M34.5 633.744C34.5 612.023 52.1105 594.415 73.8342 594.415L607.166 594.415C628.889 594.415 646.5 612.023 646.5 633.744L646.5 791.052C646.5 812.773 628.889 830.381 607.166 830.381L73.8342 830.381C52.1105 830.381 34.5 812.773 34.5 791.052Z" stroke="#000000" stroke-width="1.33301" stroke-miterlimit="8" fill="#FFFFFF" fill-rule="evenodd"/><path d="M48.5 506.261C48.5 500.279 53.3503 495.429 59.3335 495.429L195.667 495.429C201.65 495.429 206.5 500.279 206.5 506.261L206.5 549.588C206.5 555.57 201.65 560.42 195.667 560.42L59.3335 560.42C53.3503 560.42 48.5 555.57 48.5 549.588Z" stroke="#000000" stroke-width="1.33301" stroke-miterlimit="8" fill="#F2F2F2" fill-rule="evenodd"/><text font-family="Calibri,Calibri_MSFontService,sans-serif" font-weight="400" font-size="21" transform="matrix(1 0 0 0.999857 101.719 522)">Head <tspan font-size="21" x="-26.0738" y="26.0037">Embedding </tspan></text><path d="M255.5 506.428C255.5 500.353 260.425 495.429 266.5 495.429L402.5 495.429C408.575 495.429 413.5 500.353 413.5 506.428L413.5 550.421C413.5 556.495 408.575 561.419 402.5 561.419L266.5 561.419C260.425 561.419 255.5 556.495 255.5 550.421Z" stroke="#000000" stroke-width="1.33301" stroke-miterlimit="8" fill="#F2F2F2" fill-rule="evenodd"/><text font-family="Calibri,Calibri_MSFontService,sans-serif" font-weight="400" font-size="21" transform="matrix(1 0 0 0.999857 297.564 523)">Relation <tspan font-size="21" x="-13.2835" y="26.0037">Embedding</tspan></text><path d="M473.5 506.261C473.5 500.279 478.35 495.429 484.334 495.429L621.666 495.429C627.65 495.429 632.5 500.279 632.5 506.261L632.5 549.588C632.5 555.57 627.65 560.42 621.666 560.42L484.334 560.42C478.35 560.42 473.5 555.57 473.5 549.588Z" stroke="#000000" stroke-width="1.33301" stroke-miterlimit="8" fill="#F2F2F2" fill-rule="evenodd"/><text font-family="Calibri,Calibri_MSFontService,sans-serif" font-weight="400" font-size="21" transform="matrix(1 0 0 0.999857 540.614 523)">Tail<tspan font-size="21" x="-34.4917" y="26.0037">Embedding</tspan></text><path d="M252.5 61.3247C252.5 54.7901 257.798 49.4929 264.333 49.4929L406.666 49.4929C413.202 49.4929 418.5 54.7901 418.5 61.3247L418.5 108.651C418.5 115.185 413.202 120.483 406.666 120.483L264.333 120.483C257.798 120.483 252.5 115.185 252.5 108.651Z" stroke="#000000" stroke-width="1.33301" stroke-miterlimit="8" fill="#F2F2F2" fill-rule="evenodd"/><text font-family="Calibri,Calibri_MSFontService,sans-serif" font-weight="400" font-size="21" transform="matrix(1 0 0 0.999857 273.119 79)">Score Function<tspan font-family="Cambria Math,Cambria Math_MSFontService,sans-serif" font-size="21" x="32.1856" y="26.0037">ğ‘“</tspan><tspan font-family="Cambria Math,Cambria Math_MSFontService,sans-serif" font-size="15" x="39.6838" y="30.0043">ğ‘Ÿ</tspan><tspan font-family="Cambria Math,Cambria Math_MSFontService,sans-serif" font-size="21" x="49.2282" y="26.0037">(</tspan><tspan font-family="Cambria Math,Cambria Math_MSFontService,sans-serif" font-size="21" x="58.0594" y="26.0037">â„</tspan><tspan font-family="Cambria Math,Cambria Math_MSFontService,sans-serif" font-size="21" x="70.2565" y="26.0037">,</tspan><tspan font-family="Cambria Math,Cambria Math_MSFontService,sans-serif" font-size="21" x="78.1413" y="26.0037">ğ‘¡</tspan><tspan font-family="Cambria Math,Cambria Math_MSFontService,sans-serif" font-size="21" x="86.9925" y="26.0037">)</tspan></text><rect x="245.5" y="294.458" width="177" height="165.976" stroke="#8497B0" stroke-width="2.66603" stroke-miterlimit="8" stroke-dasharray="7.99809 2.66603" fill="none"/><rect x="37.5" y="200.471" width="183" height="170.976" stroke="#8497B0" stroke-width="2.66603" stroke-miterlimit="8" stroke-dasharray="7.99809 2.66603" fill="none"/><path d="M253.5 401.109C253.5 395.219 258.276 390.444 264.167 390.444L407.833 390.444C413.724 390.444 418.5 395.219 418.5 401.109L418.5 443.769C418.5 449.66 413.724 454.435 407.833 454.435L264.167 454.435C258.276 454.435 253.5 449.66 253.5 443.769Z" stroke="#000000" stroke-width="1.33301" stroke-miterlimit="8" fill="#FFE699" fill-rule="evenodd"/><text font-family="Calibri,Calibri_MSFontService,sans-serif" font-weight="400" font-size="21" transform="matrix(1 0 0 0.999857 312.085 415)">Index<tspan font-size="21" x="-15.4896" y="26.0037">Selecting</tspan></text><path d="M0.999572-0.00953596 2.06978 112.171 0.0706356 112.19-0.999572 0.00953596ZM7.7213 110.784 1.18464 124.175-5.60632 110.911Z" transform="matrix(1.00014 0 0 -1 127 495.122)"/><path d="M551.917 494.876 551.09 383.949 553.089 383.934 553.916 494.861ZM545.434 385.324 552 371.947 558.764 385.225Z"/><path d="M255.5 394.443 416.022 451.244" stroke="#C55A11" stroke-width="0.666507" stroke-miterlimit="8" fill="none" fill-rule="evenodd"/><path d="M333.16 494.288 333.056 471.934 335.056 471.925 335.16 494.279ZM327.397 473.293 334 459.934 340.727 473.231Z"/><path d="M481.5 12.3316C481.5 10.2148 483.216 8.49879 485.333 8.49879L524.667 8.49879C526.784 8.49879 528.5 10.2148 528.5 12.3316L528.5 27.6626C528.5 29.7794 526.784 31.4955 524.667 31.4955L485.333 31.4955C483.216 31.4955 481.5 29.7794 481.5 27.6626Z" stroke="#000000" stroke-width="1.33301" stroke-miterlimit="8" fill="#F8CBAD" fill-rule="evenodd"/><path d="M599.5 11.1652C599.5 9.14038 601.142 7.49897 603.167 7.49897L642.833 7.49897C644.858 7.49897 646.5 9.14038 646.5 11.1652L646.5 25.8296C646.5 27.8544 644.858 29.4958 642.833 29.4958L603.167 29.4958C601.142 29.4958 599.5 27.8544 599.5 25.8296Z" stroke="#000000" stroke-width="1.33301" stroke-miterlimit="8" fill="#FFE699" fill-rule="evenodd"/><path d="M721.5 11.1652C721.5 9.14038 723.142 7.49897 725.167 7.49897L763.833 7.49897C765.858 7.49897 767.5 9.14038 767.5 11.1652L767.5 25.8296C767.5 27.8544 765.858 29.4958 763.833 29.4958L725.167 29.4958C723.142 29.4958 721.5 27.8544 721.5 25.8296Z" stroke="#000000" stroke-width="1.33301" stroke-miterlimit="8" fill="#F2F2F2" fill-rule="evenodd"/><text font-family="Calibri,Calibri_MSFontService,sans-serif" font-weight="400" font-size="19" transform="matrix(1 0 0 0.999857 535.43 24)">: Ours<tspan font-size="19" x="120.091" y="-2.00029">: SFBR</tspan><tspan font-size="19" x="237.569" y="-2.00029">: Common</tspan></text><path d="M1209.04 616.618 1210.53 614.638 1209.57 613.918 1213.25 613.012 1213.4 616.8 1212.44 616.08 1210.96 618.059Z" stroke="#4472C4" stroke-width="1.33289" stroke-miterlimit="8" fill="#4472C4" fill-rule="evenodd"/><path d="M811.896 748.26 811.202 617.078 811.868 617.075 812.562 748.256ZM807.543 618.43 811.5 610.412 815.541 618.388Z"/><rect x="776.5" y="588.416" width="183" height="168.976" stroke="#8497B0" stroke-width="2.66603" stroke-miterlimit="8" stroke-dasharray="7.99809 2.66603" fill="none"/><path d="M842.5 612.412C842.5 609.099 845.634 606.413 849.5 606.413 853.366 606.413 856.5 609.099 856.5 612.412 856.5 615.725 853.366 618.411 849.5 618.411 845.634 618.411 842.5 615.725 842.5 612.412Z" stroke="#4472C4" stroke-width="1.33301" stroke-miterlimit="8" fill="#4472C4" fill-rule="evenodd"/><path d="M0 2.83666 13.9308 2.83666 13.9308 0 20.8723 5.67332 13.9308 11.3466 13.9308 8.50996 0 8.50996Z" stroke="#4472C4" stroke-width="1.33291" stroke-miterlimit="8" fill="#4472C4" fill-rule="evenodd" transform="matrix(-0.667882 0.744268 0.744374 0.667786 858.932 669.413)"/><path d="M653.5 62.491 658.531 817.615" stroke="#AFABAB" stroke-width="2.99928" stroke-miterlimit="8" stroke-dasharray="8.99785 2.99928" fill="none" fill-rule="evenodd"/><path d="M902.5 443.103C902.5 437.213 907.276 432.438 913.167 432.438L1180.83 432.438C1186.72 432.438 1191.5 437.213 1191.5 443.103L1191.5 485.763C1191.5 491.654 1186.72 496.429 1180.83 496.429L913.167 496.429C907.276 496.429 902.5 491.654 902.5 485.763Z" stroke="#000000" stroke-width="1.33301" stroke-miterlimit="8" fill="#FFFFFF" fill-rule="evenodd"/><text font-family="Calibri,Calibri_MSFontService,sans-serif" font-weight="400" font-size="21" transform="matrix(1 0 0 0.999857 953.399 457)">Inductive Bias Loss by<tspan font-size="21" x="-46.5422" y="26.0037">Entity Embedding Concentration</tspan></text><path d="M1184.5 623.911C1184.5 614.247 1192.33 606.413 1202 606.413 1211.67 606.413 1219.5 614.247 1219.5 623.911 1219.5 633.574 1211.67 641.408 1202 641.408 1192.33 641.408 1184.5 633.574 1184.5 623.911Z" stroke="#4472C4" stroke-width="1.33301" stroke-miterlimit="8" stroke-dasharray="3.99904 1.33301" fill="none" fill-rule="evenodd"/><path d="M1372.52 412.217 653.5 407.442" stroke="#AFABAB" stroke-width="2.99928" stroke-miterlimit="8" stroke-dasharray="8.99785 2.99928" fill="none" fill-rule="evenodd"/><path d="M818.5 706.899C818.5 703.309 821.41 700.4 825 700.4 828.59 700.4 831.5 703.309 831.5 706.899 831.5 710.488 828.59 713.398 825 713.398 821.41 713.398 818.5 710.488 818.5 706.899Z" stroke="#4472C4" stroke-width="1.33301" stroke-miterlimit="8" stroke-dasharray="3.99904 1.33301" fill="none" fill-rule="evenodd"/><path d="M788.5 724.063 936.495 724.063 936.495 724.729 788.5 724.729ZM935.162 720.398 943.16 724.396 935.162 728.395Z"/><path d="M884.5 625.41C884.5 622.097 887.41 619.411 891 619.411 894.59 619.411 897.5 622.097 897.5 625.41 897.5 628.724 894.59 631.409 891 631.409 887.41 631.409 884.5 628.724 884.5 625.41Z" stroke="#4472C4" stroke-width="1.33301" stroke-miterlimit="8" fill="#4472C4" fill-rule="evenodd"/><path d="M918.5 649.407C918.5 646.094 921.41 643.408 925 643.408 928.59 643.408 931.5 646.094 931.5 649.407 931.5 652.72 928.59 655.406 925 655.406 921.41 655.406 918.5 652.72 918.5 649.407Z" stroke="#4472C4" stroke-width="1.33301" stroke-miterlimit="8" fill="#4472C4" fill-rule="evenodd"/><path d="M833.5 644.908C833.5 641.87 836.41 639.408 840 639.408 843.59 639.408 846.5 641.87 846.5 644.908 846.5 647.945 843.59 650.407 840 650.407 836.41 650.407 833.5 647.945 833.5 644.908Z" stroke="#4472C4" stroke-width="1.33301" stroke-miterlimit="8" fill="#4472C4" fill-rule="evenodd"/><path d="M871.5 658.406C871.5 655.092 874.41 652.406 878 652.406 881.59 652.406 884.5 655.092 884.5 658.406 884.5 661.719 881.59 664.405 878 664.405 874.41 664.405 871.5 661.719 871.5 658.406Z" stroke="#4472C4" stroke-width="1.33301" stroke-miterlimit="8" fill="#4472C4" fill-rule="evenodd"/><path d="M907.5 679.403C907.5 676.089 910.634 673.404 914.5 673.404 918.366 673.404 921.5 676.089 921.5 679.403 921.5 682.716 918.366 685.402 914.5 685.402 910.634 685.402 907.5 682.716 907.5 679.403Z" stroke="#4472C4" stroke-width="1.33301" stroke-miterlimit="8" fill="#4472C4" fill-rule="evenodd"/><path d="M823.5 702.899C823.5 699.31 826.41 696.4 830 696.4 833.59 696.4 836.5 699.31 836.5 702.899 836.5 706.489 833.59 709.398 830 709.398 826.41 709.398 823.5 706.489 823.5 702.899Z" stroke="#4472C4" stroke-width="1.33301" stroke-miterlimit="8" stroke-dasharray="3.99904 1.33301" fill="none" fill-rule="evenodd"/><path d="M824.5 709.898C824.5 706.309 827.186 703.399 830.5 703.399 833.814 703.399 836.5 706.309 836.5 709.898 836.5 713.488 833.814 716.397 830.5 716.397 827.186 716.397 824.5 713.488 824.5 709.898Z" stroke="#4472C4" stroke-width="1.33301" stroke-miterlimit="8" stroke-dasharray="3.99904 1.33301" fill="none" fill-rule="evenodd"/><path d="M830.5 705.899C830.5 702.309 833.41 699.4 837 699.4 840.59 699.4 843.5 702.309 843.5 705.899 843.5 709.488 840.59 712.398 837 712.398 833.41 712.398 830.5 709.488 830.5 705.899Z" stroke="#4472C4" stroke-width="1.33301" stroke-miterlimit="8" stroke-dasharray="3.99904 1.33301" fill="none" fill-rule="evenodd"/><path d="M828.5 712.898C828.5 709.308 831.41 706.399 835 706.399 838.59 706.399 841.5 709.308 841.5 712.898 841.5 716.487 838.59 719.397 835 719.397 831.41 719.397 828.5 716.487 828.5 712.898Z" stroke="#4472C4" stroke-width="1.33301" stroke-miterlimit="8" stroke-dasharray="3.99904 1.33301" fill="none" fill-rule="evenodd"/><path d="M1165.9 761.258 1165.2 630.076 1165.87 630.073 1166.56 761.254ZM1161.54 631.429 1165.5 623.411 1169.54 631.386Z"/><rect x="1130.5" y="601.414" width="183" height="168.976" stroke="#8497B0" stroke-width="2.66603" stroke-miterlimit="8" stroke-dasharray="7.99809 2.66603" fill="none"/><path d="M1196.5 624.41C1196.5 621.097 1199.41 618.411 1203 618.411 1206.59 618.411 1209.5 621.097 1209.5 624.41 1209.5 627.724 1206.59 630.41 1203 630.41 1199.41 630.41 1196.5 627.724 1196.5 624.41Z" stroke="#4472C4" stroke-width="1.33301" stroke-miterlimit="8" fill="#4472C4" fill-rule="evenodd"/><path d="M1142.5 737.061 1290.49 737.061 1290.49 737.728 1142.5 737.727ZM1289.16 733.396 1297.16 737.394 1289.16 741.393Z"/><path d="M1238.5 638.408C1238.5 635.095 1241.41 632.409 1245 632.409 1248.59 632.409 1251.5 635.095 1251.5 638.408 1251.5 641.722 1248.59 644.408 1245 644.408 1241.41 644.408 1238.5 641.722 1238.5 638.408Z" stroke="#4472C4" stroke-width="1.33301" stroke-miterlimit="8" fill="#4472C4" fill-rule="evenodd"/><path d="M1272.5 662.405C1272.5 659.092 1275.41 656.406 1279 656.406 1282.59 656.406 1285.5 659.092 1285.5 662.405 1285.5 665.718 1282.59 668.404 1279 668.404 1275.41 668.404 1272.5 665.718 1272.5 662.405Z" stroke="#4472C4" stroke-width="1.33301" stroke-miterlimit="8" fill="#4472C4" fill-rule="evenodd"/><path d="M1187.5 657.906C1187.5 654.869 1190.63 652.406 1194.5 652.406 1198.37 652.406 1201.5 654.869 1201.5 657.906 1201.5 660.943 1198.37 663.405 1194.5 663.405 1190.63 663.405 1187.5 660.943 1187.5 657.906Z" stroke="#4472C4" stroke-width="1.33301" stroke-miterlimit="8" fill="#4472C4" fill-rule="evenodd"/><path d="M1225.5 671.404C1225.5 668.09 1228.41 665.405 1232 665.405 1235.59 665.405 1238.5 668.09 1238.5 671.404 1238.5 674.717 1235.59 677.403 1232 677.403 1228.41 677.403 1225.5 674.717 1225.5 671.404Z" stroke="#4472C4" stroke-width="1.33301" stroke-miterlimit="8" fill="#4472C4" fill-rule="evenodd"/><path d="M1261.5 692.401C1261.5 689.087 1264.63 686.402 1268.5 686.402 1272.37 686.402 1275.5 689.087 1275.5 692.401 1275.5 695.714 1272.37 698.4 1268.5 698.4 1264.63 698.4 1261.5 695.714 1261.5 692.401Z" stroke="#4472C4" stroke-width="1.33301" stroke-miterlimit="8" fill="#4472C4" fill-rule="evenodd"/><path d="M1193.15 618.671 1191.13 617.237 1190.44 618.215 1189.43 614.56 1193.22 614.304 1192.52 615.282 1194.54 616.715Z" stroke="#4472C4" stroke-width="1.33295" stroke-miterlimit="8" fill="#4472C4" fill-rule="evenodd"/><path d="M1206.73 631.903 1207.32 634.307 1208.49 634.021 1206.86 637.444 1203.83 635.165 1204.99 634.88 1204.4 632.475Z" stroke="#4472C4" stroke-width="1.33283" stroke-miterlimit="8" fill="#4472C4" fill-rule="evenodd"/><path d="M1200.46 651.348 1201.94 649.369 1200.98 648.648 1204.67 647.743 1204.82 651.531 1203.86 650.81 1202.37 652.789Z" stroke="#4472C4" stroke-width="1.33289" stroke-miterlimit="8" fill="#4472C4" fill-rule="evenodd"/><path d="M1175.5 658.406C1175.5 649.018 1183.56 641.408 1193.5 641.408 1203.44 641.408 1211.5 649.018 1211.5 658.406 1211.5 667.793 1203.44 675.403 1193.5 675.403 1183.56 675.403 1175.5 667.793 1175.5 658.406Z" stroke="#4472C4" stroke-width="1.33301" stroke-miterlimit="8" stroke-dasharray="3.99904 1.33301" fill="none" fill-rule="evenodd"/><path d="M1184.57 653.402 1182.55 651.968 1181.85 652.946 1180.85 649.29 1184.63 649.034 1183.94 650.012 1185.96 651.446Z" stroke="#4472C4" stroke-width="1.33295" stroke-miterlimit="8" fill="#4472C4" fill-rule="evenodd"/><path d="M1198.15 666.634 1198.74 669.038 1199.9 668.752 1198.27 672.175 1195.24 669.896 1196.41 669.61 1195.82 667.206Z" stroke="#4472C4" stroke-width="1.33283" stroke-miterlimit="8" fill="#4472C4" fill-rule="evenodd"/><path d="M1250.04 630.618 1251.53 628.638 1250.57 627.918 1254.25 627.012 1254.41 630.8 1253.45 630.079 1251.96 632.059Z" stroke="#4472C4" stroke-width="1.33289" stroke-miterlimit="8" fill="#4472C4" fill-rule="evenodd"/><path d="M1225.5 637.909C1225.5 628.245 1233.33 620.411 1243 620.411 1252.66 620.411 1260.5 628.245 1260.5 637.909 1260.5 647.572 1252.66 655.406 1243 655.406 1233.33 655.406 1225.5 647.572 1225.5 637.909Z" stroke="#4472C4" stroke-width="1.33301" stroke-miterlimit="8" stroke-dasharray="3.99904 1.33301" fill="none" fill-rule="evenodd"/><path d="M1234.15 632.671 1232.13 631.237 1231.44 632.215 1230.44 628.559 1234.22 628.303 1233.52 629.281 1235.54 630.715Z" stroke="#4472C4" stroke-width="1.33295" stroke-miterlimit="8" fill="#4472C4" fill-rule="evenodd"/><path d="M1247.73 645.903 1248.32 648.307 1249.49 648.021 1247.86 651.444 1244.83 649.165 1245.99 648.879 1245.4 646.475Z" stroke="#4472C4" stroke-width="1.33283" stroke-miterlimit="8" fill="#4472C4" fill-rule="evenodd"/><path d="M1285.14 654.561 1286.63 652.582 1285.67 651.861 1289.35 650.956 1289.51 654.743 1288.55 654.023 1287.06 656.002Z" stroke="#4472C4" stroke-width="1.33289" stroke-miterlimit="8" fill="#4472C4" fill-rule="evenodd"/><path d="M1260.5 661.405C1260.5 652.018 1268.33 644.408 1278 644.408 1287.67 644.408 1295.5 652.018 1295.5 661.405 1295.5 670.793 1287.67 678.403 1278 678.403 1268.33 678.403 1260.5 670.793 1260.5 661.405Z" stroke="#4472C4" stroke-width="1.33301" stroke-miterlimit="8" stroke-dasharray="3.99904 1.33301" fill="none" fill-rule="evenodd"/><path d="M1269.25 656.615 1267.23 655.181 1266.54 656.159 1265.54 652.503 1269.32 652.247 1268.62 653.225 1270.64 654.659Z" stroke="#4472C4" stroke-width="1.33295" stroke-miterlimit="8" fill="#4472C4" fill-rule="evenodd"/><path d="M1282.83 669.846 1283.42 672.251 1284.59 671.965 1282.96 675.388 1279.93 673.109 1281.09 672.823 1280.5 670.418Z" stroke="#4472C4" stroke-width="1.33283" stroke-miterlimit="8" fill="#4472C4" fill-rule="evenodd"/><path d="M1237.45 664.682 1238.94 662.703 1237.98 661.982 1241.66 661.077 1241.82 664.865 1240.86 664.144 1239.37 666.124Z" stroke="#4472C4" stroke-width="1.33289" stroke-miterlimit="8" fill="#4472C4" fill-rule="evenodd"/><path d="M1212.5 671.904C1212.5 662.24 1220.56 654.406 1230.5 654.406 1240.44 654.406 1248.5 662.24 1248.5 671.904 1248.5 681.567 1240.44 689.401 1230.5 689.401 1220.56 689.401 1212.5 681.567 1212.5 671.904Z" stroke="#4472C4" stroke-width="1.33301" stroke-miterlimit="8" stroke-dasharray="3.99904 1.33301" fill="none" fill-rule="evenodd"/><path d="M1221.56 666.736 1219.55 665.302 1218.85 666.28 1217.85 662.624 1221.63 662.368 1220.93 663.346 1222.95 664.78Z" stroke="#4472C4" stroke-width="1.33295" stroke-miterlimit="8" fill="#4472C4" fill-rule="evenodd"/><path d="M1235.15 679.968 1235.74 682.372 1236.9 682.086 1235.27 685.509 1232.24 683.23 1233.41 682.944 1232.81 680.54Z" stroke="#4472C4" stroke-width="1.33283" stroke-miterlimit="8" fill="#4472C4" fill-rule="evenodd"/><path d="M1274.58 686.3 1276.06 684.321 1275.1 683.6 1278.79 682.695 1278.94 686.483 1277.98 685.762 1276.49 687.741Z" stroke="#4472C4" stroke-width="1.33289" stroke-miterlimit="8" fill="#4472C4" fill-rule="evenodd"/><path d="M1249.5 692.901C1249.5 683.237 1257.56 675.403 1267.5 675.403 1277.44 675.403 1285.5 683.237 1285.5 692.901 1285.5 702.564 1277.44 710.398 1267.5 710.398 1257.56 710.398 1249.5 702.564 1249.5 692.901Z" stroke="#4472C4" stroke-width="1.33301" stroke-miterlimit="8" stroke-dasharray="3.99904 1.33301" fill="none" fill-rule="evenodd"/><path d="M1258.69 688.354 1256.67 686.92 1255.97 687.898 1254.97 684.242 1258.75 683.986 1258.06 684.964 1260.08 686.398Z" stroke="#4472C4" stroke-width="1.33295" stroke-miterlimit="8" fill="#4472C4" fill-rule="evenodd"/><path d="M1272.27 701.586 1272.86 703.99 1274.02 703.704 1272.39 707.127 1269.36 704.848 1270.53 704.562 1269.94 702.157Z" stroke="#4472C4" stroke-width="1.33283" stroke-miterlimit="8" fill="#4472C4" fill-rule="evenodd"/><text font-family="Calibri,Calibri_MSFontService,sans-serif" font-weight="400" font-size="16" transform="matrix(1 0 0 0.999857 691.385 452)">:<tspan font-size="16" x="6.6651" y="0">Before Entity</tspan><tspan font-size="16" x="90.645" y="0">-</tspan><tspan font-size="16" x="95.4772" y="0">Transformation</tspan><tspan font-size="19" x="107.53" y="330.047">Entity </tspan><tspan font-size="19" x="156.011" y="330.047">Embedding</tspan></text><path d="M834.5 711.898C834.5 708.309 837.186 705.399 840.5 705.399 843.814 705.399 846.5 708.309 846.5 711.898 846.5 715.487 843.814 718.397 840.5 718.397 837.186 718.397 834.5 715.487 834.5 711.898Z" stroke="#4472C4" stroke-width="1.33301" stroke-miterlimit="8" stroke-dasharray="3.99904 1.33301" fill="none" fill-rule="evenodd"/><path d="M669.5 447.436C669.5 443.018 673.082 439.437 677.5 439.437 681.918 439.437 685.5 443.018 685.5 447.436 685.5 451.854 681.918 455.435 677.5 455.435 673.082 455.435 669.5 451.854 669.5 447.436Z" stroke="#4472C4" stroke-width="1.33301" stroke-miterlimit="8" fill="#4472C4" fill-rule="evenodd"/><path d="M669.5 472.932C669.5 468.238 673.082 464.433 677.5 464.433 681.918 464.433 685.5 468.238 685.5 472.932 685.5 477.626 681.918 481.431 677.5 481.431 673.082 481.431 669.5 477.626 669.5 472.932Z" stroke="#4472C4" stroke-width="1.33301" stroke-miterlimit="8" stroke-dasharray="3.99904 1.33301" fill="none" fill-rule="evenodd"/><path d="M255.5 313.289C255.5 306.202 261.246 300.457 268.334 300.457L404.667 300.457C411.754 300.457 417.5 306.202 417.5 313.289L417.5 364.614C417.5 371.701 411.754 377.446 404.667 377.446L268.334 377.446C261.246 377.446 255.5 371.701 255.5 364.614Z" stroke="#000000" stroke-width="1.33301" stroke-miterlimit="8" fill="#F8CBAD" fill-rule="evenodd"/><text font-family="Calibri,Calibri_MSFontService,sans-serif" font-weight="400" font-size="21" transform="matrix(1 0 0 0.999857 278.949 340)">Shared Affine<tspan font-size="21" x="-7.35156" y="26.0037">Transformation</tspan><tspan font-size="16" x="47.9155" y="-23.0033">(1)</tspan></text><path d="M1129.5 137.314C1129.5 130.227 1135.25 124.482 1142.33 124.482L1278.67 124.482C1285.75 124.482 1291.5 130.227 1291.5 137.314L1291.5 188.639C1291.5 195.726 1285.75 201.471 1278.67 201.471L1142.33 201.471C1135.25 201.471 1129.5 195.726 1129.5 188.639Z" stroke="#000000" stroke-width="1.33301" stroke-miterlimit="8" fill="#F8CBAD" fill-rule="evenodd"/><text font-family="Calibri,Calibri_MSFontService,sans-serif" font-weight="400" font-size="21" transform="matrix(1 0 0 0.999857 1152.95 161)">Shared Affine<tspan font-size="21" x="-7.35156" y="26.0037">Transformation</tspan><tspan font-size="16" x="48.9105" y="-21.003">(1)</tspan></text><path d="M775.5 145.313C775.5 139.33 780.35 134.481 786.334 134.481L929.666 134.481C935.65 134.481 940.5 139.33 940.5 145.313L940.5 188.639C940.5 194.622 935.65 199.471 929.666 199.471L786.334 199.471C780.35 199.471 775.5 194.622 775.5 188.639Z" stroke="#000000" stroke-width="1.33301" stroke-miterlimit="8" fill="#FFE699" fill-rule="evenodd"/><text font-family="Calibri,Calibri_MSFontService,sans-serif" font-weight="400" font-size="21" transform="matrix(1 0 0 0.999857 832.937 161)">Index<tspan font-size="21" x="-15.4896" y="26.0037">Selecting</tspan></text><path d="M788.5 523.259C788.5 517.276 793.35 512.427 799.334 512.427L942.666 512.427C948.65 512.427 953.5 517.276 953.5 523.259L953.5 566.585C953.5 572.568 948.65 577.417 942.666 577.417L799.334 577.417C793.35 577.417 788.5 572.568 788.5 566.585Z" stroke="#000000" stroke-width="1.33301" stroke-miterlimit="8" fill="#FFE699" fill-rule="evenodd"/><text font-family="Calibri,Calibri_MSFontService,sans-serif" font-weight="400" font-size="21" transform="matrix(1 0 0 0.999857 843.714 537)">Entity <tspan font-size="21" x="-40.7036" y="26.0037">Transformation</tspan><tspan font-size="19" x="308.378" y="253.036">Entity </tspan><tspan font-size="19" x="356.859" y="253.036">Embedding</tspan><tspan font-size="16" x="-152.031" y="-60.0086">: After Entity</tspan><tspan font-size="16" x="-70.0377" y="-60.0086">-</tspan><tspan font-size="16" x="-65.2055" y="-60.0086">Transformation</tspan></text><path d="M46.5 307.29C46.5 301.307 51.3503 296.457 57.3336 296.457L200.666 296.457C206.65 296.457 211.5 301.307 211.5 307.29L211.5 350.616C211.5 356.599 206.65 361.448 200.666 361.448L57.3336 361.448C51.3503 361.448 46.5 356.599 46.5 350.616Z" stroke="#000000" stroke-width="1.33301" stroke-miterlimit="8" fill="#FFE699" fill-rule="evenodd"/><text font-family="Calibri,Calibri_MSFontService,sans-serif" font-weight="400" font-size="21" transform="matrix(1 0 0 0.999857 104.258 322)">Entity<tspan font-size="21" x="-40.7036" y="26.0037">Transformation</tspan></text><path d="M49.5 300.457 210.022 357.258" stroke="#C55A11" stroke-width="0.666507" stroke-miterlimit="8" fill="none" fill-rule="evenodd"/><path d="M47.5 220.635C47.5 213.364 53.3951 207.47 60.667 207.47L198.333 207.47C205.605 207.47 211.5 213.364 211.5 220.635L211.5 273.294C211.5 280.565 205.605 286.459 198.333 286.459L60.667 286.459C53.3951 286.459 47.5 280.565 47.5 273.294Z" stroke="#000000" stroke-width="1.33301" stroke-miterlimit="8" fill="#F8CBAD" fill-rule="evenodd"/><text font-family="Calibri,Calibri_MSFontService,sans-serif" font-weight="400" font-size="21" transform="matrix(1 0 0 0.999857 72.0836 249)">Rooted Entity<tspan font-size="21" x="-7.21161" y="26.0037">Transformation</tspan><tspan font-size="16" x="48.1288" y="-22.0032">(2)</tspan></text><rect x="460.5" y="201.471" width="184" height="170.976" stroke="#8497B0" stroke-width="2.66603" stroke-miterlimit="8" stroke-dasharray="7.99809 2.66603" fill="none"/><path d="M470.5 307.123C470.5 301.233 475.276 296.457 481.167 296.457L624.833 296.457C630.724 296.457 635.5 301.233 635.5 307.123L635.5 349.783C635.5 355.673 630.724 360.448 624.833 360.448L481.167 360.448C475.276 360.448 470.5 355.673 470.5 349.783Z" stroke="#000000" stroke-width="1.33301" stroke-miterlimit="8" fill="#FFE699" fill-rule="evenodd"/><text font-family="Calibri,Calibri_MSFontService,sans-serif" font-weight="400" font-size="21" transform="matrix(1 0 0 0.999857 528.111 321)">Entity<tspan font-size="21" x="-40.7036" y="26.0037">Transformation</tspan></text><path d="M472.5 300.457 633.022 357.258" stroke="#C55A11" stroke-width="0.666507" stroke-miterlimit="8" fill="none" fill-rule="evenodd"/><path d="M0.333206-2.91692e-07 0.333305 113.219-0.333107 113.219-0.333206 2.91692e-07ZM3.99857 111.886 0.000104947 119.883-3.99837 111.886Z" transform="matrix(1.00014 0 0 -1 719.5 345.35)"/><path d="M705.5 329.12 804.323 329.12 804.323 329.786 705.5 329.786ZM802.99 325.454 810.988 329.453 802.99 333.451Z"/><rect x="696.5" y="210.47" width="128" height="140.98" stroke="#8497B0" stroke-width="2.66603" stroke-miterlimit="8" stroke-dasharray="7.99809 2.66603" fill="none"/><path d="M776.5 249.464C776.5 246.151 779.186 243.465 782.5 243.465 785.814 243.465 788.5 246.151 788.5 249.464 788.5 252.777 785.814 255.463 782.5 255.463 779.186 255.463 776.5 252.777 776.5 249.464Z" stroke="#2F528F" stroke-width="1.33301" stroke-miterlimit="8" fill="#4472C4" fill-rule="evenodd"/><path d="M762.5 242.465C762.5 239.152 765.186 236.466 768.5 236.466 771.814 236.466 774.5 239.152 774.5 242.465 774.5 245.778 771.814 248.464 768.5 248.464 765.186 248.464 762.5 245.778 762.5 242.465Z" stroke="#2F528F" stroke-width="1.33301" stroke-miterlimit="8" fill="#4472C4" fill-rule="evenodd"/><path d="M763.5 258.463C763.5 255.15 766.186 252.464 769.5 252.464 772.814 252.464 775.5 255.15 775.5 258.463 775.5 261.776 772.814 264.462 769.5 264.462 766.186 264.462 763.5 261.776 763.5 258.463Z" stroke="#2F528F" stroke-width="1.33301" stroke-miterlimit="8" fill="#4472C4" fill-rule="evenodd"/><path d="M0.333206-2.91692e-07 0.333305 113.219-0.333107 113.219-0.333206 2.91692e-07ZM3.99857 111.886 0.000104947 119.883-3.99837 111.886Z" transform="matrix(1.00014 0 0 -1 897.5 344.35)"/><path d="M883.5 328.12 982.322 328.12 982.322 328.786 883.5 328.786ZM980.989 324.454 988.987 328.453 980.989 332.451Z"/><rect x="874.5" y="210.47" width="128" height="139.98" stroke="#8497B0" stroke-width="2.66603" stroke-miterlimit="8" stroke-dasharray="7.99809 2.66603" fill="none"/><path d="M952.5 287.959C952.5 284.922 955.186 282.459 958.5 282.459 961.814 282.459 964.5 284.922 964.5 287.959 964.5 290.996 961.814 293.458 958.5 293.458 955.186 293.458 952.5 290.996 952.5 287.959Z" stroke="#2F528F" stroke-width="1.33301" stroke-miterlimit="8" fill="#4472C4" fill-rule="evenodd"/><path d="M932.5 293.458C932.5 290.145 935.186 287.459 938.5 287.459 941.814 287.459 944.5 290.145 944.5 293.458 944.5 296.771 941.814 299.457 938.5 299.457 935.186 299.457 932.5 296.771 932.5 293.458Z" stroke="#2F528F" stroke-width="1.33301" stroke-miterlimit="8" fill="#4472C4" fill-rule="evenodd"/><path d="M943.5 248.464C943.5 245.151 946.186 242.465 949.5 242.465 952.814 242.465 955.5 245.151 955.5 248.464 955.5 251.778 952.814 254.464 949.5 254.464 946.186 254.464 943.5 251.778 943.5 248.464Z" stroke="#2F528F" stroke-width="1.33301" stroke-miterlimit="8" fill="#4472C4" fill-rule="evenodd"/><path d="M0.0635989 0.32708-2.18608 0.764517-2.07235 0.719541-4.25954 2.09434-4.20469 2.05124-6.39188 4.17594-6.35609 4.13499-8.48079 7.00958-8.45914 6.9763-10.5213 10.6008-10.5095 10.5779-12.5092 14.8273-12.5002 14.8064-14.3749 19.6182-14.3686 19.6004-16.1183 24.9746-16.1142 24.9611-17.739 30.7728-17.7352 30.7578-19.1725 37.0069-19.1691 36.9902-21.5437 50.4258-21.5405 50.4024-23.0402 64.7753-23.0387 64.7534-23.6011 79.5637-23.601 79.5427-23.4135 86.9791-23.4144 86.9622-22.8519 94.3361-22.8543 94.3141-20.7921 108.687-20.7978 108.657-17.6107 122.093-17.6179 122.067-15.6182 128.254-15.623 128.24-13.4358 134.114-13.4438 134.095-11.0692 139.406-11.0793 139.386-8.51713 144.198-8.52961 144.176-5.8425 148.426-5.86086 148.399-3.04876 152.024-3.07896 151.99-0.141881 154.865-0.211712 154.812 2.61327 156.4 2.2868 156.981-0.576553 155.372-3.56134 152.45-6.39719 148.795-9.09951 144.522-11.6729 139.689-14.0566 134.357-16.25 128.466-18.2561 122.26-21.4497 108.797-23.5156 94.3978-24.0795 87.0044-24.2674 79.549-23.7042 64.7171-22.202 50.3214-19.8238 36.8658-18.3829 30.6009-16.7542 24.775-14.9993 19.3851-13.117 14.5538-11.1069 10.2824-9.02852 6.62946-6.87579 3.71694-4.64388 1.5488-2.37434 0.12223-0.0635989-0.32708ZM2.61248 152.479 8.68625 159.04-0.206892 159.962Z" fill="#4472C4" transform="matrix(1.83723e-16 1 1.00014 -1.83697e-16 778.5 237.466)"/><path d="M0.0512161-0.329246 2.90701 0.114989 5.79006 1.39634 8.65215 3.43161 11.3751 6.15452 13.9601 9.55917 16.4742 13.5817 18.8594 18.1011 21.1182 23.1206 23.1243 28.5747 25.0053 34.4058 27.9487 46.9938 29.8903 60.3966 30.5792 74.3003 30.0157 88.2002 28.5132 101.598 26.1345 114.18 24.693 120.008 23.0638 125.46 21.3083 130.476 19.425 134.995 17.4137 138.955 15.3241 142.374 12.2589 145.449 11.787 144.978 14.8244 141.932 14.776 141.993 16.8382 138.619 16.8255 138.642 18.8252 134.705 18.8147 134.728 20.6894 130.228 20.6825 130.246 22.4322 125.247 22.4275 125.262 24.0522 119.825 24.048 119.84 25.4853 114.029 25.4814 114.047 27.856 101.486 27.8523 101.511 29.3521 88.1377 29.3503 88.1614 29.9127 74.2883 29.9129 74.3183 29.2255 60.4453 29.2285 60.4766 27.2913 47.1035 27.2966 47.1316 24.3595 34.5709 24.3668 34.5973 22.4921 28.7857 22.4965 28.7984 20.4968 23.3617 20.5057 23.3834 18.256 18.3841 18.2652 18.4029 15.8905 13.9036 15.9026 13.9246 13.403 9.9252 13.4202 9.95009 10.858 6.57558 10.8878 6.6097 8.20068 3.92258 8.24319 3.95852 5.43109 1.95881 5.48887 1.99175 2.67677 0.741925 2.76088 0.766683-0.0512161 0.329246ZM15.1743 148.012 6.2491 148.541 11.1812 141.084Z" fill="#4472C4" transform="matrix(1.83723e-16 1 1.00014 -1.83697e-16 778.5 297.457)"/><path d="M777.6 280.126 781.007 276.882 784.5 280.549 787.993 276.882 791.4 280.126 787.748 283.959 791.4 287.793 787.993 291.037 784.5 287.369 781.007 291.037 777.6 287.793 781.252 283.959Z" stroke="#2F528F" stroke-width="1.33301" stroke-miterlimit="8" fill="#4472C4" fill-rule="evenodd"/><path d="M760.797 288.249 764.29 284.757 768 288.466 771.71 284.757 775.203 288.249 771.493 291.958 775.203 295.668 771.71 299.16 768 295.45 764.29 299.16 760.797 295.668 764.507 291.958Z" stroke="#2F528F" stroke-width="1.33301" stroke-miterlimit="8" fill="#4472C4" fill-rule="evenodd"/><path d="M949.6 266.128 953.007 262.884 956.5 266.551 959.993 262.884 963.4 266.128 959.748 269.961 963.4 273.795 959.993 277.039 956.5 273.371 953.007 277.039 949.6 273.795 953.252 269.961Z" stroke="#2F528F" stroke-width="1.33301" stroke-miterlimit="8" fill="#4472C4" fill-rule="evenodd"/><path d="M930.563 261.329 934.044 258.165 937.5 261.966 940.956 258.165 944.437 261.329 940.679 265.462 944.437 269.595 940.956 272.759 937.5 268.958 934.044 272.759 930.563 269.595 934.321 265.462Z" stroke="#2F528F" stroke-width="1.33301" stroke-miterlimit="8" fill="#4472C4" fill-rule="evenodd"/><text font-family="Calibri,Calibri_MSFontService,sans-serif" font-weight="400" font-size="19" transform="matrix(1 0 0 0.999857 737.377 370)">Relation <tspan font-size="19" x="-11.5772" y="23.0033">Embedding</tspan><tspan font-size="19" x="185.721" y="2.00029">Entity</tspan><tspan font-size="19" x="150.036" y="25.0036">Transformation</tspan></text><path d="M0.333206-2.91692e-07 0.333305 113.219-0.333107 113.219-0.333206 2.91692e-07ZM3.99857 111.886 0.000104947 119.883-3.99837 111.886Z" transform="matrix(1.00014 0 0 -1 1083.5 345.35)"/><path d="M1069.5 330.119 1168.32 330.12 1168.32 330.786 1069.5 330.786ZM1166.99 326.454 1174.99 330.453 1166.99 334.451Z"/><rect x="1061.5" y="211.47" width="127" height="139.98" stroke="#8497B0" stroke-width="2.66603" stroke-miterlimit="8" stroke-dasharray="7.99809 2.66603" fill="none"/><path d="M1140.5 250.464C1140.5 247.151 1143.19 244.465 1146.5 244.465 1149.81 244.465 1152.5 247.151 1152.5 250.464 1152.5 253.777 1149.81 256.463 1146.5 256.463 1143.19 256.463 1140.5 253.777 1140.5 250.464Z" stroke="#2F528F" stroke-width="1.33301" stroke-miterlimit="8" fill="#4472C4" fill-rule="evenodd"/><path d="M1126.5 242.465C1126.5 239.152 1129.19 236.466 1132.5 236.466 1135.81 236.466 1138.5 239.152 1138.5 242.465 1138.5 245.778 1135.81 248.464 1132.5 248.464 1129.19 248.464 1126.5 245.778 1126.5 242.465Z" stroke="#2F528F" stroke-width="1.33301" stroke-miterlimit="8" fill="#4472C4" fill-rule="evenodd"/><path d="M1127.5 259.463C1127.5 256.15 1130.19 253.464 1133.5 253.464 1136.81 253.464 1139.5 256.15 1139.5 259.463 1139.5 262.776 1136.81 265.462 1133.5 265.462 1130.19 265.462 1127.5 262.776 1127.5 259.463Z" stroke="#2F528F" stroke-width="1.33301" stroke-miterlimit="8" fill="#4472C4" fill-rule="evenodd"/><path d="M0.333206-2.91692e-07 0.333305 113.219-0.333107 113.219-0.333206 2.91692e-07ZM3.99857 111.886 0.000104947 119.883-3.99837 111.886Z" transform="matrix(1.00014 0 0 -1 1261.5 345.35)"/><path d="M1247.5 329.12 1346.32 329.12 1346.32 329.786 1247.5 329.786ZM1344.99 325.454 1352.99 329.453 1344.99 333.451Z"/><rect x="1239.5" y="211.47" width="127" height="139.98" stroke="#8497B0" stroke-width="2.66603" stroke-miterlimit="8" stroke-dasharray="7.99809 2.66603" fill="none"/><path d="M1289.5 256.463C1289.5 253.15 1292.19 250.464 1295.5 250.464 1298.81 250.464 1301.5 253.15 1301.5 256.463 1301.5 259.776 1298.81 262.462 1295.5 262.462 1292.19 262.462 1289.5 259.776 1289.5 256.463Z" stroke="#2F528F" stroke-width="1.33301" stroke-miterlimit="8" fill="#4472C4" fill-rule="evenodd"/><path d="M1303.5 264.462C1303.5 261.149 1306.19 258.463 1309.5 258.463 1312.81 258.463 1315.5 261.149 1315.5 264.462 1315.5 267.775 1312.81 270.461 1309.5 270.461 1306.19 270.461 1303.5 267.775 1303.5 264.462Z" stroke="#2F528F" stroke-width="1.33301" stroke-miterlimit="8" fill="#4472C4" fill-rule="evenodd"/><path d="M1307.5 248.964C1307.5 245.927 1310.19 243.465 1313.5 243.465 1316.81 243.465 1319.5 245.927 1319.5 248.964 1319.5 252.001 1316.81 254.464 1313.5 254.464 1310.19 254.464 1307.5 252.001 1307.5 248.964Z" stroke="#2F528F" stroke-width="1.33301" stroke-miterlimit="8" fill="#4472C4" fill-rule="evenodd"/><path d="M0.0635989 0.32708-2.18608 0.764517-2.07235 0.719541-4.25954 2.09434-4.20469 2.05124-6.39188 4.17594-6.35609 4.13499-8.48079 7.00958-8.45914 6.9763-10.5213 10.6008-10.5095 10.5779-12.5092 14.8273-12.5002 14.8064-14.3749 19.6182-14.3686 19.6004-16.1183 24.9746-16.1142 24.9611-17.739 30.7728-17.7352 30.7578-19.1725 37.0069-19.1691 36.9902-21.5437 50.4258-21.5405 50.4024-23.0402 64.7753-23.0387 64.7534-23.6011 79.5637-23.601 79.5427-23.4135 86.9791-23.4144 86.9622-22.8519 94.3361-22.8543 94.3141-20.7921 108.687-20.7978 108.657-17.6107 122.093-17.6179 122.067-15.6182 128.254-15.623 128.24-13.4358 134.114-13.4438 134.095-11.0692 139.406-11.0793 139.386-8.51713 144.198-8.52961 144.176-5.8425 148.426-5.86086 148.399-3.04876 152.024-3.07896 151.99-0.141881 154.865-0.211712 154.812 2.61327 156.4 2.2868 156.981-0.576553 155.372-3.56134 152.45-6.39719 148.795-9.09951 144.522-11.6729 139.689-14.0566 134.357-16.25 128.466-18.2561 122.26-21.4497 108.797-23.5156 94.3978-24.0795 87.0044-24.2674 79.549-23.7042 64.7171-22.202 50.3214-19.8238 36.8658-18.3829 30.6009-16.7542 24.775-14.9993 19.3851-13.117 14.5538-11.1069 10.2824-9.02852 6.62946-6.87579 3.71694-4.64388 1.5488-2.37434 0.12223-0.0635989-0.32708ZM2.61248 152.479 8.68625 159.04-0.206892 159.962Z" fill="#4472C4" transform="matrix(1.83723e-16 1 1.00014 -1.83697e-16 1142.5 238.466)"/><path d="M0.0512161-0.329246 2.90701 0.114989 5.79006 1.39634 8.65215 3.43161 11.3751 6.15452 13.9601 9.55917 16.4742 13.5817 18.8594 18.1011 21.1182 23.1206 23.1243 28.5747 25.0053 34.4058 27.9487 46.9938 29.8903 60.3966 30.5792 74.3003 30.0157 88.2002 28.5132 101.598 26.1345 114.18 24.693 120.008 23.0638 125.46 21.3083 130.476 19.425 134.995 17.4137 138.955 15.3241 142.374 12.2589 145.449 11.787 144.978 14.8244 141.932 14.776 141.993 16.8382 138.619 16.8255 138.642 18.8252 134.705 18.8147 134.728 20.6894 130.228 20.6825 130.246 22.4322 125.247 22.4275 125.262 24.0522 119.825 24.048 119.84 25.4853 114.029 25.4814 114.047 27.856 101.486 27.8523 101.511 29.3521 88.1377 29.3503 88.1614 29.9127 74.2883 29.9129 74.3183 29.2255 60.4453 29.2285 60.4766 27.2913 47.1035 27.2966 47.1316 24.3595 34.5709 24.3668 34.5973 22.4921 28.7857 22.4965 28.7984 20.4968 23.3617 20.5057 23.3834 18.256 18.3841 18.2652 18.4029 15.8905 13.9036 15.9026 13.9246 13.403 9.9252 13.4202 9.95009 10.858 6.57558 10.8878 6.6097 8.20068 3.92258 8.24319 3.95852 5.43109 1.95881 5.48887 1.99175 2.67677 0.741925 2.76088 0.766683-0.0512161 0.329246ZM15.1743 148.012 6.2491 148.541 11.1812 141.084Z" fill="#4472C4" transform="matrix(1.83723e-16 1 1.00014 -1.83697e-16 1142.5 298.457)"/><path d="M1141.6 281.125 1145.01 277.882 1148.5 281.549 1151.99 277.882 1155.4 281.125 1151.75 284.959 1155.4 288.793 1151.99 292.036 1148.5 288.369 1145.01 292.036 1141.6 288.793 1145.25 284.959Z" stroke="#2F528F" stroke-width="1.33301" stroke-miterlimit="8" fill="#4472C4" fill-rule="evenodd"/><path d="M1124.8 288.249 1128.29 284.757 1132 288.466 1135.71 284.757 1139.2 288.249 1135.49 291.958 1139.2 295.668 1135.71 299.16 1132 295.45 1128.29 299.16 1124.8 295.668 1128.51 291.958Z" stroke="#2F528F" stroke-width="1.33301" stroke-miterlimit="8" fill="#4472C4" fill-rule="evenodd"/><path d="M1295.6 294.124 1299.01 290.88 1302.5 294.547 1305.99 290.88 1309.4 294.124 1305.75 297.957 1309.4 301.791 1305.99 305.035 1302.5 301.367 1299.01 305.035 1295.6 301.791 1299.25 297.957Z" stroke="#2F528F" stroke-width="1.33301" stroke-miterlimit="8" fill="#4472C4" fill-rule="evenodd"/><path d="M1278.6 290.124 1282.01 286.881 1285.5 290.548 1288.99 286.881 1292.4 290.124 1288.75 293.958 1292.4 297.792 1288.99 301.035 1285.5 297.368 1282.01 301.035 1278.6 297.792 1282.25 293.958Z" stroke="#2F528F" stroke-width="1.33301" stroke-miterlimit="8" fill="#4472C4" fill-rule="evenodd"/><text font-family="Calibri,Calibri_MSFontService,sans-serif" font-weight="400" font-size="19" transform="matrix(1 0 0 0.999857 1098.55 372)">Relation <tspan font-size="19" x="-11.5773" y="23.0033">Embedding</tspan><tspan font-size="19" x="188.595" y="0">Entity</tspan><tspan font-size="19" x="152.91" y="23.0033">Transformation</tspan></text><path d="M432.04 285.674C432.407 282.111 435.149 279.574 438.165 280.007 440.827 280.39 442.867 282.987 442.994 286.152" stroke="#000000" stroke-width="1.99923" stroke-miterlimit="8" fill="none" fill-rule="evenodd"/><path d="M413 527.543 413 528.384 437.637 528.384 437.637 391.944" stroke="#000000" stroke-width="1.99923" stroke-miterlimit="8" fill="none" fill-rule="evenodd"/><path d="M0-0.999617 221.062-0.999617 221.062 102.451 220.063 101.451 329.499 101.451 329.499 103.451 219.063 103.451 219.063 0 220.063 0.999617 0 0.999617ZM328.166 95.7869 336.163 102.451 328.166 109.115Z" transform="matrix(-1.83723e-16 -1 -1.00014 1.83697e-16 437.466 456.146)"/><path d="M0 0 68.2821 0 68.2821 216.323" stroke="#000000" stroke-width="1.99923" stroke-miterlimit="8" fill="none" fill-rule="evenodd" transform="matrix(-1.83723e-16 -1 -1.00014 1.83697e-16 552.354 201.263)"/><path d="M128 200.492 128 132.981 333.602 132.981" stroke="#000000" stroke-width="1.99923" stroke-miterlimit="8" fill="none" fill-rule="evenodd"/><path d="M0-0.999617 9.02626-0.999617 9.02626 107.122 7.02702 107.122 7.02702 0 8.02664 0.999617 0 0.999617ZM14.6908 105.789 8.02664 113.786 1.36252 105.789Z" transform="matrix(-1.83723e-16 -1 -1.00014 1.83697e-16 333.803 293.986)"/><path d="M443 283.96 452.911 283.96 452.911 285.959 443 285.959ZM451.578 278.295 459.576 284.959 451.578 291.623Z"/><path d="M334 294.079 334 285.959 432.33 285.959" stroke="#000000" stroke-width="1.99923" stroke-miterlimit="8" fill="none" fill-rule="evenodd"/><path d="M882.5 60.9916C882.5 55.1933 887.201 50.4928 893 50.4928L1161 50.4928C1166.8 50.4928 1171.5 55.1933 1171.5 60.9916L1171.5 102.985C1171.5 108.783 1166.8 113.484 1161 113.484L893 113.484C887.201 113.484 882.5 108.783 882.5 102.985Z" stroke="#000000" stroke-width="1.33301" stroke-miterlimit="8" fill="#FFFFFF" fill-rule="evenodd"/><text font-family="Calibri,Calibri_MSFontService,sans-serif" font-weight="400" font-size="21" transform="matrix(1 0 0 0.999857 933.632 74)">Inductive Bias Loss by<tspan font-size="21" x="32.1723" y="26.0037">Disconnection</tspan></text><path d="M469.5 221.635C469.5 214.364 475.395 208.47 482.667 208.47L621.333 208.47C628.605 208.47 634.5 214.364 634.5 221.635L634.5 274.294C634.5 281.565 628.605 287.459 621.333 287.459L482.667 287.459C475.395 287.459 469.5 281.565 469.5 274.294Z" stroke="#000000" stroke-width="1.33301" stroke-miterlimit="8" fill="#F8CBAD" fill-rule="evenodd"/><text font-family="Calibri,Calibri_MSFontService,sans-serif" font-weight="400" font-size="21" transform="matrix(1 0 0 0.999857 495.067 250)">Rooted Entity<tspan font-size="21" x="-7.21161" y="26.0037">Transformation</tspan><tspan font-size="16" x="48.1288" y="-22.0032">(2)</tspan></text><path d="M1139.5 524.258C1139.5 517.172 1145.25 511.427 1152.33 511.427L1288.67 511.427C1295.75 511.427 1301.5 517.172 1301.5 524.258L1301.5 575.584C1301.5 582.671 1295.75 588.416 1288.67 588.416L1152.33 588.416C1145.25 588.416 1139.5 582.671 1139.5 575.584Z" stroke="#000000" stroke-width="1.33301" stroke-miterlimit="8" fill="#F8CBAD" fill-rule="evenodd"/><text font-family="Calibri,Calibri_MSFontService,sans-serif" font-weight="400" font-size="16" transform="matrix(1 0 0 0.999857 1212.59 528)">(2)<tspan font-size="21" x="-51.8608" y="25.0036">Rooted Entity</tspan><tspan font-size="21" x="-59.0724" y="51.0073">Transformation</tspan><tspan font-size="24" x="-991.735" y="335.048">(a) Overview of RSCF</tspan><tspan font-size="24" x="-254.918" y="334.048">(b) Effective of RSCF</tspan><tspan font-size="17" x="-887.104" y="291.042">Root Embedding</tspan><tspan font-size="17" x="-753.587" y="291.042">Changes</tspan><tspan font-size="17" x="-690.249" y="291.042">of</tspan><tspan font-size="17" x="-671.754" y="291.042">Embeddin</tspan><tspan font-size="17" x="-600.104" y="291.042">g</tspan><tspan fill="#C55A11" font-size="24" x="-920.77" y="140.02">(1) Shared Affine Transformation</tspan><tspan font-family="Cambria Math,Cambria Math_MSFontService,sans-serif" font-size="24" x="-802.679" y="169.024">ğ‘Š</tspan><tspan font-family="Cambria Math,Cambria Math_MSFontService,sans-serif" font-size="18" x="-783.037" y="174.025">ğ‘–</tspan><tspan font-family="Cambria Math,Cambria Math_MSFontService,sans-serif" font-size="24" x="-768.613" y="169.024">=</tspan><tspan font-family="Cambria Math,Cambria Math_MSFontService,sans-serif" font-size="24" x="-743.953" y="169.024">ğ‘Ÿ</tspan><tspan font-family="Cambria Math,Cambria Math_MSFontService,sans-serif" font-size="18" x="-735.261" y="174.025">ğ‘–</tspan><tspan font-family="Cambria Math,Cambria Math_MSFontService,sans-serif" font-size="24" x="-727.503" y="169.024">ğ´</tspan><tspan font-size="24" x="-1042.01" y="98.0141">Given that </tspan><tspan font-family="Cambria Math,Cambria Math_MSFontService,sans-serif" font-size="24" x="-935.151" y="98.0141">ğ‘Ÿ</tspan><tspan font-family="Cambria Math,Cambria Math_MSFontService,sans-serif" font-size="18" x="-926.46" y="103.015">ğ‘–</tspan><tspan font-size="24" x="-913.203" y="98.0141">has the </tspan><tspan font-family="Cambria Math,Cambria Math_MSFontService,sans-serif" font-size="24" x="-836.055" y="98.0141">ğ‘–</tspan><tspan font-size="24" x="-827.63" y="98.0141">-</tspan><tspan font-size="24" x="-820.299" y="98.0141">th</tspan><tspan font-size="24" x="-794.138" y="98.0141">index,</tspan><tspan fill="#CC9B00" font-size="24" x="-1133.9" y="139.02">Index Selecting</tspan><tspan font-family="Cambria Math,Cambria Math_MSFontService,sans-serif" font-size="24" x="-1106.41" y="168.024">ğ‘Š</tspan><tspan font-family="Cambria Math,Cambria Math_MSFontService,sans-serif" font-size="18" x="-1086.77" y="172.025">ğ‘–</tspan><tspan font-family="Cambria Math,Cambria Math_MSFontService,sans-serif" font-size="24" x="-1072.34" y="168.024">=</tspan><tspan font-family="Cambria Math,Cambria Math_MSFontService,sans-serif" font-size="24" x="-1047.68" y="168.024">ğ¸ğ‘‡</tspan></text><path d="M133.38 3.96428 138.605 3.96428 138.605 26.3087 133.38 26.3087 133.38 25.4065 136.66 25.4065 136.66 4.86649 133.38 4.86649ZM118.727 3.96428 123.953 3.96428 123.953 4.86649 120.672 4.86649 120.672 25.4065 123.953 25.4065 123.953 26.3087 118.727 26.3087Z" fill-rule="evenodd" transform="matrix(1.00014 0 0 1 78.6852 673.568)"/><text font-family="Cambria Math,Cambria Math_MSFontService,sans-serif" font-weight="400" font-size="24" transform="matrix(1 0 0 0.999857 203.155 696)">ğ‘–<tspan fill="#CC9B00" font-family="Calibri,Calibri_MSFontService,sans-serif" font-size="24" x="-149.567" y="65.0093">Entity Transformation </tspan><tspan font-size="24" x="-95.8869" y="94.0135">ğ‘’</tspan><tspan font-size="18" x="-84.7562" y="99.0142">ğ‘Ÿ</tspan><tspan font-size="24" x="-67.2138" y="94.0135">=</tspan><tspan font-size="24" x="-42.553" y="94.0135">ğ‘’</tspan><tspan font-size="24" x="-24.8639" y="94.0135">â‹…</tspan><tspan font-size="24" x="-12.7001" y="94.0135">ğ‘Š</tspan><tspan font-size="18" x="6.94182" y="99.0142">ğ‘–</tspan><tspan fill="#C55A11" font-family="Calibri,Calibri_MSFontService,sans-serif" font-size="24" x="88.9751" y="66.0095">(2) Rooted Entity Transformation</tspan><tspan font-size="24" x="126.206" y="96.0138">ğ‘’</tspan><tspan font-size="18" x="137.337" y="101.014">ğ‘Ÿ</tspan><tspan font-size="24" x="154.879" y="96.0138">=</tspan><tspan font-size="24" x="179.54" y="96.0138">ğ‘’</tspan><tspan font-size="24" x="191.897" y="96.0138"> </tspan>    <tspan font-size="24" x="223.889" y="96.0138">+</tspan><tspan font-size="24" x="247.217" y="96.0138"> </tspan>    <tspan font-size="24" x="273.878" y="96.0138">ğ‘’</tspan><tspan font-size="24" x="291.567" y="96.0138">â‹…</tspan><tspan font-size="24" x="303.73" y="96.0138">ğ‘</tspan><tspan font-size="18" x="319.233" y="101.014">ğ‘</tspan><tspan font-size="24" x="331.437" y="96.0138">(</tspan><tspan font-size="24" x="341.435" y="96.0138">ğ‘Š</tspan><tspan font-size="18" x="361.077" y="101.014">ğ‘–</tspan><tspan font-size="24" x="368.835" y="96.0138">)</tspan><tspan font-family="Calibri,Calibri_MSFontService,sans-serif" font-size="19" x="-82.7654" y="29.0042">Lookup Table of ET</tspan><tspan font-family="Calibri,Calibri_MSFontService,sans-serif" font-size="19" x="141.413" y="27.0039">Matrix Shared Across Relations</tspan></text><path d="M379.5 799.385 399 799.386" stroke="#000000" stroke-width="2.99928" stroke-miterlimit="8" fill="none" fill-rule="evenodd"/><path d="M477.5 803.385 582.441 803.385" stroke="#000000" stroke-width="2.99928" stroke-miterlimit="8" fill="none" fill-rule="evenodd"/><path d="M483.5 703.399 502.922 703.399" stroke="#000000" stroke-width="2.99928" stroke-miterlimit="8" fill="none" fill-rule="evenodd"/><path d="M161.5 703.399 190.599 703.399" stroke="#000000" stroke-width="2.99928" stroke-miterlimit="8" fill="none" fill-rule="evenodd"/></g></svg>